#!OML:ASF G:\JayActor3\Patient Classification 1\Patient 1\Session 2\male.ASF
:FULLY-SPECIFIED
:DEGREES
1417
root 46.915 15.7903 -5.50546 1479.58 -103.561 326.778
lowerback 12.2756 0.232019 -8.43722
upperback 13.8212 -1.33441 -2.64329
thorax 8.10105 -1.76116 1.85985
lowerneck -1.18566 -2.81053 -2.39999
upperneck 21.4512 -4.29093 -0.675705
head 6.76015 -2.53641 -0.102709
rclavicle -1.98785e-014 1.70955e-014
rhumerus -40.3795 -17.7169 -54.935
rradius 120.897
rwrist -55.3024
rhand 13.2699 3.77851
rfingers 7.12502
rthumb 38.2207 -21.9603
lclavicle -1.98785e-014 1.70955e-014
lhumerus -22.1266 19.3084 57.085
lradius 106.002
lwrist 84.6767
lhand 15.5078 23.3706
lfingers 7.12502
lthumb 40.3294 48.4965
rfemur -58.6104 3.1822 12.8457
rtibia 46.9118
rfoot -17.0352 -4.4447
rtoes -1.04838
lfemur 4.48809 19.9049 -32.1851
ltibia 18.671
lfoot -23.1255 8.025
ltoes -22.6955
1418
root 46.7923 15.7223 -5.52411 1481.76 -103.398 325.243
lowerback 11.8524 0.175312 -8.11005
upperback 13.2953 -1.2815 -2.53732
thorax 7.71047 -1.64946 1.80903
lowerneck -1.32518 -1.98439 -2.43176
upperneck 21.037 -3.18161 -0.333241
head 6.64454 -1.97415 0.0834119
rclavicle -3.77691e-015 8.74653e-015
rhumerus -39.6182 -19.307 -58.2052
rradius 118.519
rwrist -61.7376
rhand 10.2233 2.38978
rfingers 7.12502
rthumb 35.3381 -24.0866
lclavicle -3.77691e-015 8.74653e-015
lhumerus -19.4458 18.5914 61.4697
lradius 100.902
lwrist 86.0085
lhand 8.95069 23.3404
lfingers 7.12502
lthumb 34.1304 50.0951
rfemur -58.4126 3.46352 11.8702
rtibia 45.0605
rfoot -16.5351 -3.93601
rtoes -0.958731
lfemur 5.19238 19.2129 -32.6554
ltibia 17.0465
lfoot -23.8427 8.57636
ltoes -21.0941
1419
root 46.6619 15.6676 -5.54492 1483.48 -103.055 324.085
lowerback 11.5019 0.0928398 -7.63003
upperback 12.7396 -1.26543 -2.37651
thorax 7.24999 -1.54544 1.73522
lowerneck -1.39273 -1.14086 -2.39526
upperneck 20.5603 -2.06026 0.0360894
head 6.49194 -1.39661 0.266756
rclavicle -5.48646e-014 -1.92821e-014
rhumerus -38.382 -20.1748 -61.4183
rradius 115.255
rwrist -65.8577
rhand 3.29301 2.29214
rfingers 7.12502
rthumb 28.7405 -25.5159
lclavicle -5.48646e-014 -1.92821e-014
lhumerus -16.8514 17.7352 65.6103
lradius 95.453
lwrist 86.5022
lhand -1.00875 23.2934
lfingers 7.12502
lthumb 24.6238 51.7295
rfemur -57.9909 3.71562 11.1508
rtibia 43.4299
rfoot -16.0476 -3.69474
rtoes -0.415932
lfemur 5.98479 18.344 -32.8299
ltibia 15.5038
lfoot -24.3562 9.05164
ltoes -19.686
1420
root 46.5241 15.6241 -5.56704 1484.79 -102.609 323.232
lowerback 11.2323 0.00501011 -7.06507
upperback 12.1678 -1.26539 -2.19664
thorax 6.7324 -1.44652 1.63478
lowerneck -1.37566 -0.31064 -2.25804
upperneck 20.0294 -0.969918 0.417491
head 6.30439 -0.823895 0.432358
rclavicle -1.80894e-014 -1.98785e-015
rhumerus -36.6954 -20.3424 -64.5242
rradius 111.071
rwrist -67.4895
rhand -6.89457 3.54954
rfingers 7.12502
rthumb 18.9722 -25.5452
lclavicle -1.80894e-014 -1.98785e-015
lhumerus -14.4266 16.8689 69.4225
lradius 89.7835
lwrist 87.5041
lhand -12.4363 23.6057
lfingers 7.12502
lthumb 13.6366 53.139
rfemur -57.374 3.91316 10.7016
rtibia 42.118
rfoot -15.5686 -3.77436
rtoes 0.343087
lfemur 6.85885 17.4708 -32.7558
ltibia 14.094
lfoot -24.6085 9.4802
ltoes -19.0429
1421
root 46.3801 15.5915 -5.59006 1485.73 -102.128 322.65
lowerback 11.0229 -0.0705908 -6.46794
upperback 11.5952 -1.25857 -2.0289
thorax 6.18654 -1.34716 1.50098
lowerneck -1.31183 0.470366 -1.98799
upperneck 19.4733 0.0440194 0.785914
head 6.10056 -0.278449 0.562492
rclavicle 3.38928e-014 1.99779e-014
rhumerus -34.6365 -19.9468 -67.4078
rradius 106.073
rwrist -67.4969
rhand -18.413 5.039
rfingers 7.12502
rthumb 7.87173 -24.7944
lclavicle 3.38928e-014 1.99779e-014
lhumerus -12.252 16.0173 72.8614
lradius 84.1266
lwrist 89.9061
lhand -22.6841 23.6614
lfingers 7.12502
lthumb 3.74818 53.6082
rfemur -56.6593 4.00844 10.5358
rtibia 41.1926
rfoot -14.9943 -4.2536
rtoes 1.01019
lfemur 7.75918 16.711 -32.4959
ltibia 12.8699
lfoot -24.6116 9.7867
ltoes -19.0449
1422
root 46.2309 15.5707 -5.6138 1486.34 -101.67 322.292
lowerback 10.8533 -0.116826 -5.86543
upperback 11.0541 -1.22224 -1.90021
thorax 5.65803 -1.24043 1.31763
lowerneck -1.29382 1.16199 -1.58252
upperneck 18.9236 0.935714 1.11587
head 5.91008 0.215336 0.646648
rclavicle -1.68967e-015 -2.70347e-014
rhumerus -32.3459 -19.147 -69.9702
rradius 100.544
rwrist -67.0135
rhand -28.6689 5.91074
rfingers 7.12502
rthumb -2.03198 -24.0593
lclavicle -1.68967e-015 -2.70347e-014
lhumerus -10.4251 15.0688 75.9055
lradius 78.8689
lwrist 93.5984
lhand -30.1379 22.6584
lfingers 7.12502
lthumb -3.4506 52.6103
rfemur -55.9599 3.97973 10.6094
rtibia 40.6845
rfoot -14.3218 -5.02852
rtoes 1.70877
lfemur 8.65901 16.1471 -32.1186
ltibia 11.8299
lfoot -24.3244 10.0475
ltoes -20.0723
